<svg width="63" height="35" fill="none" xmlns="http://www.w3.org/2000/svg"><path fill-rule="evenodd" clip-rule="evenodd" d="M29.009 1.361C29.77 1.103 30.635 1 31.499 1c.865 0 1.729.103 2.492.36l26.636 9.233c.356.155.661.31.915.516.255.207.458.516.458.929 0 .411-.203.722-.458.928-.217.22-.47.328-.762.45l-.001.001-.152.065-3.456 1.186v5.623a2.04 2.04 0 0 1 1.219 1.857c0 1.031-.863 1.909-1.93 1.909-1.017 0-1.882-.878-1.882-1.91 0-.825.508-1.547 1.22-1.856v-5.159l-7.524 2.632v9.646c0 .31-.152.567-.457.67l-16.114 5.88a.685.685 0 0 1-.458 0l-16.063-5.88a.734.734 0 0 1-.457-.67v-9.646L2.372 13.483a14.791 14.791 0 0 0-.152-.065c-.291-.123-.545-.23-.763-.451A1.177 1.177 0 0 1 1 12.039c0-.413.203-.722.457-.929.255-.207.56-.361.915-.516L29.01 1.361zm4.54 1.271c-.512-.155-1.281-.257-2.049-.257s-1.536.102-2.05.255L2.613 11.89c-.107 0-.14.024-.184.056l-.04.028a.414.414 0 0 1-.032.018.38.38 0 0 1 .088.061.42.42 0 0 0 .168.094l12.805 4.372c.02 0 .042.01.066.02a.453.453 0 0 0 .074.025c.019.004.04.007.065.007l13.829 4.785c1.024.36 3.073.36 4.097 0l13.83-4.733c.051-.102.205-.102.307-.102l12.703-4.373a.466.466 0 0 0 .118-.055c.019-.012.033-.025.048-.037.025-.02.05-.041.09-.062-.04-.02-.065-.041-.09-.061a.422.422 0 0 0-.166-.093l-26.84-9.207zm13.54 16.244v8.328l-15.614 5.421-15.564-5.422v-8.328l13.046 4.287c1.49.494 3.544.494 5.034 0l13.098-4.286zm9.489 3.466c0-.418-.247-.717-.678-.717-.37 0-.678.298-.678.717 0 .36.308.658.678.658.431 0 .678-.299.678-.658z" fill="#006FA0" stroke="#006FA0"/></svg>