<svg width="52" height="44" fill="none" xmlns="http://www.w3.org/2000/svg"><path clip-rule="evenodd" d="M19.794 34c-.108-1.163-.067-1.974-.067-3.037.543-.277 1.515-2.039 1.68-3.527.427-.034 1.1-.438 1.296-2.034.107-.856-.316-1.338-.573-1.49.695-2.027 2.137-8.297-2.668-8.945-.494-.843-1.76-1.27-3.405-1.27-6.583.118-7.377 4.825-5.934 10.215-.257.152-.68.634-.574 1.49.198 1.596.87 2 1.297 2.034.164 1.488 1.175 3.25 1.72 3.527 0 1.063.04 1.874-.069 3.038C11.195 37.399 2.406 36.445 2 43h28.253c-.405-6.555-9.156-5.6-10.459-9z" stroke="#006FA0" stroke-width="2" stroke-linecap="round"/><path fill-rule="evenodd" clip-rule="evenodd" d="M38.666 1.007c-3.284 0-6.38.934-8.718 2.63-2.406 1.744-3.731 4.084-3.731 6.587 0 2.254 1.092 4.4 3.083 6.08l.034 5.308a.819.819 0 0 0 .417.691c.244.146.498.187.841.022l6.038-3.007a16.96 16.96 0 0 0 2.036.123c3.284 0 6.38-.934 8.72-2.63 1.228-.89 2.174-1.938 2.807-3.082 1.25-2.383 1.122-6.266-1.273-8.75-.61-.633-.978-1.015-1.395-1.332-.63-.48-1.371-.814-3.234-1.654-1.722-.644-3.639-.986-5.625-.986zm-7.653 14.886a.796.796 0 0 0-.309-.586c-1.787-1.4-2.771-3.206-2.771-5.083 0-4.189 4.89-7.596 10.734-7.596 5.843 0 10.733 3.325 10.733 7.596a5.55 5.55 0 0 1-.433 2.137l-.01.022a.402.402 0 0 0-.01.024c-1.328 3.128-5.434 5.413-10.28 5.413-.699 0-1.4-.049-2.087-.145a.892.892 0 0 0-.646.157l-4.892 2.436-.028-4.33v-.045z" fill="#006FA0" stroke="#006FA0" stroke-width=".15"/><path d="M43.875 12.779c.464 0 .84-.356.84-.796 0-.44-.376-.796-.84-.796h-10.51c-.465 0-.842.356-.842.796 0 .44.377.796.841.796h10.51zm0-3.939c.464 0 .84-.357.84-.797 0-.44-.376-.795-.84-.795h-10.51c-.465 0-.842.356-.842.795 0 .44.377.796.841.796h10.51z" fill="#006FA0"/></svg>