<svg width="32" height="37" fill="none" xmlns="http://www.w3.org/2000/svg"><path fill-rule="evenodd" clip-rule="evenodd" d="M20.023 3.991c0 .547.46.991 1.03.991h7.824c.578 0 1.062.483 1.062 1.097v27.842c0 .614-.484 1.097-1.062 1.097H7.252c-.578 0-1.062-.483-1.062-1.097V22.248c0-.548-.461-.991-1.03-.991-.57 0-1.031.443-1.031.99v11.674c0 1.692 1.39 3.079 3.123 3.079h21.625C30.61 37 32 35.613 32 33.92V6.08C32 4.386 30.61 3 28.877 3h-7.824c-.57 0-1.03.444-1.03.991zM5.16 10.096c.569 0 1.03-.444 1.03-.991V6.079c0-.614.484-1.097 1.062-1.097h3.389c.57 0 1.03-.444 1.03-.991 0-.547-.46-.991-1.03-.991H7.252C5.52 3 4.13 4.387 4.13 6.08v3.025c0 .547.461.991 1.03.991z" fill="#006FA0"/><path d="M16.65.486c.303-.481.945-.63 1.436-.333.49.297.642.927.339 1.408L7.455 19 .46 14.362a1.012 1.012 0 0 1-.28-1.42c.322-.47.97-.592 1.448-.276l5.195 3.444L16.65.486zM14.478 14c-.585 0-1.059-.448-1.059-1s.474-1 1.06-1h6.14c.584 0 1.058.448 1.058 1s-.474 1-1.058 1h-6.14zm-.016 4.25c-.576 0-1.043-.448-1.043-1s.467-1 1.043-1h11.335c.575 0 1.042.448 1.042 1s-.467 1-1.042 1H14.462zm0 4.25c-.576 0-1.043-.448-1.043-1s.467-1 1.043-1h11.335c.575 0 1.042.448 1.042 1s-.467 1-1.042 1H14.462zm-.002 4.25c-.575 0-1.04-.448-1.04-1s.465-1 1.04-1h11.338c.575 0 1.04.448 1.04 1s-.465 1-1.04 1H14.46zM19.64 31c-.585 0-1.06-.448-1.06-1s.475-1 1.06-1h6.14c.585 0 1.059.448 1.059 1s-.474 1-1.06 1h-6.14z" fill="#006FA0"/></svg>