<svg width="52" height="44" viewBox="0 0 52 44" fill="none" xmlns="http://www.w3.org/2000/svg">
<path fill-rule="evenodd" clip-rule="evenodd" d="M17.7941 20.3029C17.6856 19.1397 17.7272 18.3279 17.7272 17.2651C18.27 16.9887 19.2425 15.2266 19.4068 13.738C19.8336 13.7041 20.5064 13.3 20.7035 11.7046C20.8098 10.8481 20.3875 10.3661 20.1302 10.2146C20.8246 8.18768 22.267 1.91722 17.4625 1.26925C16.9681 0.426449 15.7019 0 14.0566 0C7.47364 0.117616 6.67959 4.82443 8.12272 10.2146C7.86621 10.3661 7.4439 10.8481 7.54948 11.7046C7.74725 13.3 8.41937 13.7041 8.84614 13.738C9.00971 15.2259 10.0209 16.9887 10.5651 17.2651C10.5651 18.3279 10.606 19.1397 10.4975 20.3029C9.19484 23.7015 0.40595 22.7476 0 29.3023H28.2529C27.8477 22.7476 19.0968 23.7015 17.7941 20.3029Z" transform="translate(2 13.6977)" stroke="#006FA0" stroke-width="2" stroke-linecap="round"/>
<path fill-rule="evenodd" clip-rule="evenodd" d="M12.308 0C15.5921 0 18.6884 0.93399 21.0269 2.62985C23.4327 4.37466 24.7576 6.71408 24.7576 9.21729C24.7576 11.4717 23.6659 13.6176 21.6743 15.2976L21.6404 20.6059C21.6386 20.8891 21.4766 21.1447 21.2235 21.2964C20.9792 21.4428 20.7251 21.4831 20.3824 21.3182L14.344 18.3117C13.6718 18.3932 12.9883 18.4346 12.308 18.4346C9.02393 18.4346 5.92749 17.5007 3.58905 15.8048C2.36011 14.9136 1.41397 13.8669 0.781708 12.7226C-0.468262 10.3397 -0.340332 6.45633 2.05432 3.97278C2.66513 3.33929 3.03284 2.95792 3.44925 2.64044C4.07916 2.16022 4.82053 1.8262 6.68326 0.986908C8.40555 0.342072 10.3223 0 12.308 0ZM19.9613 14.8867C19.9725 14.6591 20.0847 14.4461 20.2704 14.3005C22.0573 12.8996 23.0415 11.0943 23.0415 9.21732C23.0415 5.02884 18.151 1.62122 12.3078 1.62122C6.46472 1.62122 1.57416 4.94687 1.57416 9.21732C1.57416 9.95926 1.72601 10.6765 2.00754 11.3549L2.01703 11.3763C2.02048 11.3842 2.02377 11.3921 2.02667 11.4001C3.35507 14.528 7.46103 16.8135 12.3078 16.8135C13.0063 16.8135 13.7082 16.7648 14.394 16.6686C14.6327 16.6352 14.8625 16.6977 15.0403 16.8259L19.9328 19.2618L19.9603 14.9308C19.9603 14.9162 19.9604 14.9015 19.9613 14.8867Z" transform="translate(50.9744 1.00656) scale(-1 1)" fill="#006FA0" stroke="#006FA0" stroke-width="0.15"/>
<path d="M0.840861 1.59173C0.376466 1.59173 0 1.23541 0 0.795866C0 0.356321 0.376466 0 0.840861 0H11.3516C11.816 0 12.1925 0.356321 12.1925 0.795866C12.1925 1.23541 11.816 1.59173 11.3516 1.59173H0.840861Z" transform="translate(44.7157 11.1871) scale(-1 1)" fill="#006FA0"/>
<path d="M0.840861 1.59173C0.376466 1.59173 0 1.23541 0 0.795866C0 0.356321 0.376466 0 0.840861 0H11.3516C11.816 0 12.1925 0.356321 12.1925 0.795866C12.1925 1.23541 11.816 1.59173 11.3516 1.59173H0.840861Z" transform="translate(44.7157 7.24756) scale(-1 1)" fill="#006FA0"/>
</svg>
