<svg width="32" height="37" viewBox="0 0 32 37" fill="none" xmlns="http://www.w3.org/2000/svg">
<path fill-rule="evenodd" clip-rule="evenodd" d="M15.8935 0.991028C15.8935 1.53836 16.3549 1.98206 16.924 1.98206H24.7477C25.3257 1.98206 25.8099 2.46524 25.8099 3.07916V30.9208C25.8099 31.5348 25.3257 32.0179 24.7477 32.0179H3.12322C2.54528 32.0179 2.06104 31.5348 2.06104 30.9208V19.2477C2.06104 18.7003 1.59966 18.2566 1.03053 18.2566C0.46138 18.2566 0 18.7003 0 19.2477V30.9208C0 32.6134 1.38963 34 3.12322 34H24.7477C26.4813 34 27.871 32.6134 27.871 30.9208V3.07916C27.871 1.3866 26.4813 0 24.7477 0H16.924C16.3549 0 15.8935 0.443695 15.8935 0.991028ZM1.03053 7.09604C1.59966 7.09604 2.06104 6.65234 2.06104 6.10501V3.07916C2.06104 2.46524 2.54528 1.98206 3.12322 1.98206H6.51192C7.08106 1.98206 7.54244 1.53836 7.54244 0.991028C7.54244 0.443695 7.08106 0 6.51192 0H3.12322C1.38963 0 0 1.3866 0 3.07916V6.10501C0 6.65234 0.46138 7.09604 1.03053 7.09604Z" transform="translate(4.12903 3)" fill="#006FA0"/>
<path d="M16.6504 0.485943C16.9529 0.00500455 17.5954 -0.144188 18.0855 0.152712C18.5755 0.449612 18.7276 1.08017 18.425 1.56111L7.45541 19L0.459196 14.3621C-0.0180418 14.0458 -0.143594 13.4096 0.178768 12.9412C0.501129 12.4729 1.14933 12.3497 1.62657 12.666L6.82219 16.1103L16.6504 0.485943Z" fill="#006FA0"/>
<path d="M1.05873 2C0.474008 2 0 1.55228 0 1C0 0.447715 0.474008 0 1.05873 0H7.19934C7.78406 0 8.25806 0.447715 8.25806 1C8.25806 1.55228 7.78406 2 7.19934 2H1.05873Z" transform="translate(13.4194 12)" fill="#006FA0"/>
<path d="M1.04228 2C0.466645 2 0 1.55228 0 1C0 0.447715 0.466645 0 1.04228 0H12.3771C12.9527 0 13.4194 0.447715 13.4194 1C13.4194 1.55228 12.9527 2 12.3771 2H1.04228Z" transform="translate(13.4194 16.25)" fill="#006FA0"/>
<path d="M1.04228 2C0.466645 2 0 1.55228 0 1C0 0.447715 0.466645 0 1.04228 0H12.3771C12.9527 0 13.4194 0.447715 13.4194 1C13.4194 1.55228 12.9527 2 12.3771 2H1.04228Z" transform="translate(13.4194 20.5)" fill="#006FA0"/>
<path d="M1.04033 2C0.465771 2 0 1.55228 0 1C0 0.447715 0.465771 0 1.04033 0H12.379C12.9536 0 13.4194 0.447715 13.4194 1C13.4194 1.55228 12.9536 2 12.379 2H1.04033Z" transform="translate(13.4194 24.75)" fill="#006FA0"/>
<path d="M1.05873 2C0.474008 2 0 1.55228 0 1C0 0.447715 0.474008 0 1.05873 0H7.19934C7.78406 0 8.25806 0.447715 8.25806 1C8.25806 1.55228 7.78406 2 7.19934 2H1.05873Z" transform="translate(18.5806 29)" fill="#006FA0"/>
</svg>
