<svg width="63" height="35" viewBox="0 0 63 35" fill="none" xmlns="http://www.w3.org/2000/svg">
<path fill-rule="evenodd" clip-rule="evenodd" d="M28.0088 0.361084C28.7713 0.103149 29.6346 0 30.4996 0C31.3637 0 32.2279 0.103149 32.9912 0.360199L59.6275 9.59332C59.9833 9.74808 60.2883 9.9028 60.5425 10.1091C60.7967 10.3155 61 10.625 61 11.0376C61 11.4494 60.7967 11.7598 60.5425 11.9661C60.3254 12.1863 60.0713 12.2937 59.7801 12.4168L59.7786 12.4174C59.7293 12.4383 59.6789 12.4595 59.6275 12.4819L56.1709 13.6683V19.2907C56.8817 19.6002 57.39 20.3223 57.39 21.1476C57.39 22.1793 56.5267 23.057 55.4592 23.057C54.4426 23.057 53.5776 22.1793 53.5776 21.1476C53.5776 20.3223 54.0859 19.6002 54.7976 19.2907V14.1325L47.2743 16.764V26.4098C47.2743 26.7193 47.1218 26.9772 46.8168 27.0804L30.7029 32.9607C30.5496 33.0131 30.3979 33.0131 30.2454 32.9607L14.1823 27.0804C13.9281 26.9772 13.7248 26.7193 13.7248 26.4098V16.764L1.37248 12.4828C1.32054 12.4602 1.26968 12.4387 1.21991 12.4177C0.92868 12.2946 0.674561 12.1872 0.457489 11.9669C0.203323 11.7606 0 11.4503 0 11.0385C0 10.6258 0.203323 10.3172 0.457489 10.11C0.711655 9.9028 1.01665 9.74893 1.37248 9.59418L28.0088 0.361084ZM32.5484 1.63217C32.0371 1.47702 31.2679 1.375 30.5004 1.375C29.7321 1.375 28.9638 1.47702 28.4507 1.63046L1.61166 10.8885C1.50473 10.8885 1.4718 10.9128 1.42798 10.9451C1.416 10.9539 1.40321 10.9633 1.38786 10.973C1.37823 10.9791 1.36761 10.9852 1.35556 10.9914C1.38469 11.0061 1.40546 11.0209 1.42392 11.0356C1.43094 11.0412 1.43764 11.0468 1.44432 11.0524L1.4445 11.0526C1.48148 11.0836 1.51845 11.1147 1.61166 11.1457L14.417 15.5185C14.4377 15.5185 14.4588 15.5272 14.4835 15.5375C14.5045 15.5462 14.5282 15.556 14.5566 15.5626C14.5759 15.567 14.5975 15.5699 14.6219 15.5699L28.4507 20.355C29.4752 20.715 31.524 20.715 32.5484 20.355L46.3782 15.6222C46.4294 15.5202 46.583 15.5202 46.6855 15.5202L59.3883 11.1474C59.4436 11.129 59.4789 11.1105 59.5063 11.092C59.5247 11.0796 59.5395 11.0672 59.5543 11.0548C59.5789 11.0343 59.6035 11.0137 59.6444 10.9931C59.6038 10.9724 59.5793 10.9519 59.5549 10.9315C59.5178 10.9006 59.481 10.8699 59.3883 10.8388L32.5484 1.63217ZM46.0889 17.8758V26.2042L30.4747 31.625L14.9111 26.2034V17.875L27.957 22.1624C29.4466 22.656 31.5012 22.656 32.9908 22.1624L46.0889 17.8758ZM55.5778 21.3424C55.5778 20.9239 55.3313 20.625 54.9 20.625C54.5303 20.625 54.2222 20.9229 54.2222 21.3424C54.2222 21.7011 54.5303 22 54.9 22C55.3313 22 55.5778 21.7011 55.5778 21.3424Z" transform="translate(1 1)" fill="#006FA0" stroke="#006FA0"/>
</svg>
